/* XPM */
static char * close_inactive_xpm[] = {
"45 29 4 1",
" 	c #FFFFFF",
".	c #E4E4E4",
"+	c #000000",
"@	c #CCCCCC",
"                                             ",
"                                             ",
".............................................",
".............................................",
".............................................",
".............................................",
".............................................",
".............................................",
".............................................",
".................+@......@+..................",
".................@+@....@+@..................",
"..................@+@..@+@...................",
"...................@+@@+@....................",
"....................@++@.....................",
"....................@++@.....................",
"...................@+@@+@....................",
"..................@+@..@+@...................",
".................@+@....@+@..................",
".................+@......@+..................",
".............................................",
".............................................",
".............................................",
".............................................",
".............................................",
".............................................",
".............................................",
".............................................",
".............................................",
"                                             "};
