/* XPM */
static char * maximize_toggled_inactive_xpm[] = {
"45 29 3 1",
" 	c #FFFFFF",
".	c #E4E4E4",
"+	c #000000",
"                                             ",
"                                             ",
".............................................",
".............................................",
".............................................",
".............................................",
".............................................",
".............................................",
".............................................",
"...................++++++++..................",
"...................+......+..................",
".................++++++++.+..................",
".................+......+.+..................",
".................+......+.+..................",
".................+......+.+..................",
".................+......+.+..................",
".................+......+++..................",
".................+......+....................",
".................++++++++....................",
".............................................",
".............................................",
".............................................",
".............................................",
".............................................",
".............................................",
".............................................",
".............................................",
".............................................",
"                                             "};
