<?xml version="1.0" standalone="no"?>
<!DOCTYPE svg PUBLIC "-//W3C//DTD SVG 20010904//EN"
 "http://www.w3.org/TR/2001/REC-SVG-20010904/DTD/svg10.dtd">
<svg version="1.0" xmlns="http://www.w3.org/2000/svg"
 width="640.000000pt" height="496.000000pt" viewBox="0 0 640.000000 496.000000"
 preserveAspectRatio="xMidYMid meet">

<g transform="translate(0.000000,496.000000) scale(0.100000,-0.100000)"
fill="#000000" stroke="none">
<path d="M795 4891 c-104 -5 -127 -10 -177 -34 -65 -32 -137 -106 -174 -179
l-24 -47 0 -1624 0 -1624 38 -59 c48 -73 119 -140 179 -166 62 -27 260 -37
771 -38 l392 0 0 -467 0 -468 33 -23 c53 -35 91 -29 156 24 47 39 277 246 944
850 l89 81 532 6 c292 4 890 7 1330 7 l799 0 63 31 c77 38 151 113 193 197
l31 61 0 1596 0 1596 -31 61 c-37 74 -118 156 -186 189 -38 18 -73 25 -163 30
-135 9 -4619 8 -4795 0z"/>
</g>
</svg>
