/* XPM */
static char * hide_inactive_xpm[] = {
"26 29 3 1",
" 	c None",
".	c #FFFFFF",
"+	c #030303",
"                          ",
"                          ",
"                          ",
"                          ",
"..........................",
"..........................",
"..........................",
"..........................",
"..........................",
"..........................",
"..........................",
"..........................",
"..........................",
"..........................",
".......++++++++++++.......",
".......++++++++++++.......",
"..........................",
"..........................",
"..........................",
"..........................",
"..........................",
"..........................",
"..........................",
"..........................",
"..........................",
"..........................",
"                          ",
"                          ",
"                          "};
