/* XPM */
static char * maximize_active_xpm[] = {
"26 29 4 1",
" 	c None",
".	c #FFFFFF",
"+	c #000000",
"@	c #030303",
"                          ",
"                          ",
"                          ",
"                          ",
".+......................+.",
".+......................+.",
".+......................+.",
".+......................+.",
".+.......@@@@@@@@@@@....+.",
".+.......@@@@@@@@@@@....+.",
".+.......@@.......@@....+.",
".+.......@@.......@@....+.",
".+.......@@.......@@....+.",
".+.......@@.......@@....+.",
".+.......@@.......@@....+.",
".+....@@@@@.......@@....+.",
".+....@@@@@.......@@....+.",
".+....@@.@@@@@@@@@@@....+.",
".+....@@.@@@@@@@@@@@....+.",
".+....@@...@@...........+.",
".+....@@@@@@@...........+.",
".+....@@@@@@@...........+.",
".+......................+.",
".+......................+.",
".+......................+.",
".+......................+.",
"                          ",
"                          ",
"                          "};
