/* XPM */
static char * maximize_toggled_pressed_xpm[] = {
"26 29 4 1",
" 	c None",
".	c #FFFFFF",
"+	c #000000",
"@	c #030303",
"                          ",
"                          ",
"                          ",
"                          ",
".+......................+.",
".+......................+.",
".+..@@@@@@@@@@@@@@@@@@..+.",
".+..@@@@@@@@@@@@@@@@@@..+.",
".+..@@@@@@..........@@..+.",
".+..@@@@@@..........@@..+.",
".+..@@@@@@..@@@@@@..@@..+.",
".+..@@@@@@..@@@@@@..@@..+.",
".+..@@@@@@..@@@@@@..@@..+.",
".+..@@.........@@@..@@..+.",
".+..@@.........@@@..@@..+.",
".+..@@..@@@@@..@@@..@@..+.",
".+..@@..@@@@@.......@@..+.",
".+..@@..@@@@@.......@@..+.",
".+..@@..@@@@@..@@@@@@@..+.",
".+..@@..@@@@@..@@@@@@@..+.",
".+..@@.........@@@@@@@..+.",
".+..@@.........@@@@@@@..+.",
".+..@@@@@@@@@@@@@@@@@@..+.",
".+..@@@@@@@@@@@@@@@@@@..+.",
".+......................+.",
".+......................+.",
"                          ",
"                          ",
"                          "};
