/* XPM */
static char * right_inactive_xpm[] = {
"5 24 3 1",
" 	c None",
".	c #FFFFFF",
"+	c #000000",
".++.+",
".++.+",
".++.+",
".++.+",
".++.+",
".++.+",
".++.+",
".++.+",
".++.+",
".++.+",
".++.+",
".++.+",
".++.+",
".++.+",
".++.+",
".++.+",
".++.+",
".++.+",
".++.+",
".++.+",
".++.+",
".++.+",
".++.+",
".++.+"};
