/* XPM */
static char * title_1_inactive_xpm[] = {
"8 29 3 1",
" 	c None",
".	c #FFFFFF",
"+	c #000000",
"........",
"++++++++",
"++++++++",
"........",
"........",
"........",
"........",
"........",
"........",
"........",
"........",
"........",
"........",
"........",
"........",
"........",
"........",
"........",
"........",
"........",
"........",
"........",
"........",
"........",
"........",
"........",
"........",
"++++++++",
"++++++++"};
