/* XPM */
static char * top_right_active_xpm[] = {
"5 29 3 1",
" 	c None",
".	c #000000",
"+	c #FFFFFF",
".....",
"++++.",
"...+.",
"...+.",
"+..+.",
"+..+.",
"+..+.",
"+..+.",
"+..+.",
"+..+.",
"+..+.",
"+..+.",
"+..+.",
"+..+.",
"+..+.",
"+..+.",
"+..+.",
"+..+.",
"+..+.",
"+..+.",
"+..+.",
"+..+.",
"+..+.",
"+..+.",
"+..+.",
"+..+.",
"...+.",
"...+.",
"+..+."};
