/* XPM */
static char * top_right_inactive_xpm[] = {
"5 29 3 1",
" 	c None",
".	c #FFFFFF",
"+	c #000000",
".....",
"++++.",
"++++.",
"..++.",
"..++.",
"..++.",
"..++.",
"..++.",
"..++.",
"..++.",
"..++.",
"..++.",
"..++.",
"..++.",
"..++.",
"..++.",
"..++.",
"..++.",
"..++.",
"..++.",
"..++.",
"..++.",
"..++.",
"..++.",
"..++.",
"..++.",
"..++.",
"++++.",
"++++."};
